<?xml version="1.0" encoding="UTF-8" standalone="no"?>
<!-- Created with Inkscape (http://www.inkscape.org/) -->

<svg
   width="276.98984mm"
   height="37.349075mm"
   viewBox="0 0 276.98984 37.349075"
   version="1.1"
   id="svg974"
   inkscape:export-filename="therabbitTextAqua.png"
   inkscape:export-xdpi="96"
   inkscape:export-ydpi="96"
   inkscape:version="1.2 (dc2aedaf03, 2022-05-15)"
   sodipodi:docname="logoLetrasAqua.svg"
   xmlns:inkscape="http://www.inkscape.org/namespaces/inkscape"
   xmlns:sodipodi="http://sodipodi.sourceforge.net/DTD/sodipodi-0.dtd"
   xmlns:xlink="http://www.w3.org/1999/xlink"
   xmlns="http://www.w3.org/2000/svg"
   xmlns:svg="http://www.w3.org/2000/svg">
  <sodipodi:namedview
     id="namedview976"
     pagecolor="#505050"
     bordercolor="#eeeeee"
     borderopacity="1"
     inkscape:showpageshadow="0"
     inkscape:pageopacity="0"
     inkscape:pagecheckerboard="0"
     inkscape:deskcolor="#505050"
     inkscape:document-units="mm"
     showgrid="false"
     showguides="true"
     inkscape:zoom="0.48996914"
     inkscape:cx="471.45827"
     inkscape:cy="20.409449"
     inkscape:window-width="1366"
     inkscape:window-height="705"
     inkscape:window-x="892"
     inkscape:window-y="1079"
     inkscape:window-maximized="1"
     inkscape:current-layer="layer1" />
  <defs
     id="defs971">
    <linearGradient
       id="linearGradient3302"
       inkscape:swatch="solid">
      <stop
         style="stop-color:#78b4b9;stop-opacity:1;"
         offset="0"
         id="stop3300" />
    </linearGradient>
    <clipPath
       clipPathUnits="userSpaceOnUse"
       id="clipPath766">
      <path
         d="M 0,850.394 H 850.394 V 0 H 0 Z"
         id="path764" />
    </clipPath>
    <linearGradient
       inkscape:collect="always"
       xlink:href="#linearGradient3302"
       id="linearGradient3304"
       x1="129.2943"
       y1="265.8439"
       x2="819.78363"
       y2="265.8439"
       gradientUnits="userSpaceOnUse" />
    <linearGradient
       inkscape:collect="always"
       xlink:href="#linearGradient3302"
       id="linearGradient3306"
       x1="-81.447998"
       y1="-33.814499"
       x2="0"
       y2="-33.814499"
       gradientUnits="userSpaceOnUse" />
    <linearGradient
       inkscape:collect="always"
       xlink:href="#linearGradient3302"
       id="linearGradient6774"
       gradientUnits="userSpaceOnUse"
       x1="-81.447998"
       y1="-33.814499"
       x2="0"
       y2="-33.814499" />
    <linearGradient
       inkscape:collect="always"
       xlink:href="#linearGradient3302"
       id="linearGradient6776"
       gradientUnits="userSpaceOnUse"
       x1="129.2943"
       y1="265.8439"
       x2="819.78363"
       y2="265.8439" />
    <linearGradient
       inkscape:collect="always"
       xlink:href="#linearGradient3302"
       id="linearGradient6778"
       gradientUnits="userSpaceOnUse"
       x1="129.2943"
       y1="265.8439"
       x2="819.78363"
       y2="265.8439" />
    <linearGradient
       inkscape:collect="always"
       xlink:href="#linearGradient3302"
       id="linearGradient6780"
       gradientUnits="userSpaceOnUse"
       x1="129.2943"
       y1="265.8439"
       x2="819.78363"
       y2="265.8439" />
    <linearGradient
       inkscape:collect="always"
       xlink:href="#linearGradient3302"
       id="linearGradient6782"
       gradientUnits="userSpaceOnUse"
       x1="129.2943"
       y1="265.8439"
       x2="819.78363"
       y2="265.8439" />
    <linearGradient
       inkscape:collect="always"
       xlink:href="#linearGradient3302"
       id="linearGradient6784"
       gradientUnits="userSpaceOnUse"
       x1="129.2943"
       y1="265.8439"
       x2="819.78363"
       y2="265.8439" />
    <linearGradient
       inkscape:collect="always"
       xlink:href="#linearGradient3302"
       id="linearGradient6786"
       gradientUnits="userSpaceOnUse"
       x1="129.2943"
       y1="265.8439"
       x2="819.78363"
       y2="265.8439" />
    <linearGradient
       inkscape:collect="always"
       xlink:href="#linearGradient3302"
       id="linearGradient6788"
       gradientUnits="userSpaceOnUse"
       x1="129.2943"
       y1="265.8439"
       x2="819.78363"
       y2="265.8439" />
    <linearGradient
       inkscape:collect="always"
       xlink:href="#linearGradient3302"
       id="linearGradient6790"
       gradientUnits="userSpaceOnUse"
       x1="129.2943"
       y1="265.8439"
       x2="819.78363"
       y2="265.8439" />
    <linearGradient
       inkscape:collect="always"
       xlink:href="#linearGradient3302"
       id="linearGradient6792"
       gradientUnits="userSpaceOnUse"
       x1="129.2943"
       y1="265.8439"
       x2="819.78363"
       y2="265.8439" />
    <linearGradient
       inkscape:collect="always"
       xlink:href="#linearGradient3302"
       id="linearGradient6794"
       gradientUnits="userSpaceOnUse"
       x1="129.2943"
       y1="265.8439"
       x2="819.78363"
       y2="265.8439" />
    <linearGradient
       inkscape:collect="always"
       xlink:href="#linearGradient3302"
       id="linearGradient6796"
       gradientUnits="userSpaceOnUse"
       x1="129.2943"
       y1="265.8439"
       x2="819.78363"
       y2="265.8439" />
    <linearGradient
       inkscape:collect="always"
       xlink:href="#linearGradient3302"
       id="linearGradient6798"
       gradientUnits="userSpaceOnUse"
       x1="129.2943"
       y1="265.8439"
       x2="819.78363"
       y2="265.8439" />
    <linearGradient
       inkscape:collect="always"
       xlink:href="#linearGradient3302"
       id="linearGradient6800"
       gradientUnits="userSpaceOnUse"
       x1="129.2943"
       y1="265.8439"
       x2="819.78363"
       y2="265.8439" />
    <linearGradient
       inkscape:collect="always"
       xlink:href="#linearGradient3302"
       id="linearGradient6802"
       gradientUnits="userSpaceOnUse"
       x1="129.2943"
       y1="265.8439"
       x2="819.78363"
       y2="265.8439" />
    <linearGradient
       inkscape:collect="always"
       xlink:href="#linearGradient3302"
       id="linearGradient6804"
       gradientUnits="userSpaceOnUse"
       x1="129.2943"
       y1="265.8439"
       x2="819.78363"
       y2="265.8439" />
    <linearGradient
       inkscape:collect="always"
       xlink:href="#linearGradient3302"
       id="linearGradient6806"
       gradientUnits="userSpaceOnUse"
       x1="129.2943"
       y1="265.8439"
       x2="819.78363"
       y2="265.8439" />
    <linearGradient
       inkscape:collect="always"
       xlink:href="#linearGradient3302"
       id="linearGradient6808"
       gradientUnits="userSpaceOnUse"
       x1="129.2943"
       y1="265.8439"
       x2="819.78363"
       y2="265.8439" />
    <linearGradient
       inkscape:collect="always"
       xlink:href="#linearGradient3302"
       id="linearGradient6810"
       gradientUnits="userSpaceOnUse"
       x1="129.2943"
       y1="265.8439"
       x2="819.78363"
       y2="265.8439" />
  </defs>
  <g
     inkscape:label="Capa 1"
     inkscape:groupmode="layer"
     id="layer1"
     transform="translate(-12.165076,-95.535464)">
    <g
       id="g756"
       transform="matrix(0.35277777,0,0,-0.35277777,40.89812,101.83833)"
       style="fill:url(#linearGradient3306);fill-opacity:1;fill-rule:nonzero">
      <path
         d="M 0,0 H -29.698 V -85.495 H -51.897 V 0 H -81.448 V 17.866 H 0 Z"
         style="fill:url(#linearGradient6774);fill-opacity:1;fill-rule:nonzero;stroke:none"
         id="path758" />
    </g>
    <g
       id="g760"
       transform="matrix(0.35277777,0,0,-0.35277777,-0.046505,207.99382)"
       style="fill:url(#linearGradient3304);fill-opacity:1;fill-rule:nonzero">
      <g
         id="g762"
         clip-path="url(#clipPath766)"
         style="fill:url(#linearGradient6810);fill-opacity:1;fill-rule:nonzero">
        <g
           id="g768"
           transform="translate(150.9053,281.1261)"
           style="fill:url(#linearGradient6778);fill-opacity:1;fill-rule:nonzero">
          <path
             d="m 0,0 c 9.851,6.94 20.142,10.632 29.404,10.632 12.349,0 20.876,-6.497 20.876,-20.968 V -65.708 H 28.669 v 49.761 c 0,6.349 -2.94,9.45 -8.968,9.45 C 13.379,-6.497 7.057,-9.154 0,-14.471 V -65.708 H -21.611 V 37.653 H 0 Z"
             style="fill:url(#linearGradient6776);fill-opacity:1;fill-rule:nonzero;stroke:none"
             id="path770" />
        </g>
        <g
           id="g772"
           transform="translate(236.9102,257.9435)"
           style="fill:url(#linearGradient6782);fill-opacity:1;fill-rule:nonzero">
          <path
             d="m 0,0 h 28.815 c 0.148,6.497 -0.587,10.928 -2.352,13.585 -2.205,3.396 -5.88,4.577 -11.32,4.577 C 5.146,18.162 0.735,14.619 0,0 M 40.871,24.955 C 46.017,18.9 47.487,9.746 46.164,-3.839 l -0.588,-6.644 H 0.147 c 0.441,-15.209 3.97,-18.901 14.996,-18.901 11.761,0 17.936,1.477 25.287,3.249 l 2.205,-14.47 c -6.028,-2.215 -14.701,-4.43 -27.198,-4.43 -29.551,0 -37.637,10.483 -37.637,41.049 0,28.35 11.468,37.948 37.637,37.8 11.173,0 19.995,-2.658 25.434,-8.859"
             style="fill:url(#linearGradient6780);fill-opacity:1;fill-rule:nonzero;stroke:none"
             id="path774" />
        </g>
        <g
           id="g776"
           transform="translate(346.7314,301.5031)"
           style="fill:url(#linearGradient6786);fill-opacity:1;fill-rule:nonzero">
          <path
             d="m 0,0 v -30.122 c 4.558,-0.443 9.115,-0.886 17.936,-0.886 13.232,0 17.79,5.316 17.79,15.357 C 35.726,-4.43 31.609,0 18.083,0 Z m 57.19,-12.698 c 0,-13.585 -4.852,-23.035 -17.201,-27.022 5.587,-2.067 10.438,-6.94 12.791,-14.618 l 9.409,-31.747 H 38.666 l -8.527,28.794 c -2.205,6.645 -5.881,9.154 -11.174,9.154 h -4.116 c -7.204,0 -10.732,0.148 -14.849,0.444 V -86.085 H -22.2 V 17.276 h 45.87 c 24.993,0 33.52,-9.302 33.52,-29.974"
             style="fill:url(#linearGradient6784);fill-opacity:1;fill-rule:nonzero;stroke:none"
             id="path778" />
        </g>
        <g
           id="g780"
           transform="translate(451.9932,249.2326)"
           style="fill:url(#linearGradient6790);fill-opacity:1;fill-rule:nonzero">
          <path
             d="m 0,0 c -8.821,-1.478 -12.35,-5.169 -12.35,-11.961 0,-5.315 2.353,-9.007 10.292,-9.007 5.881,0 7.939,1.329 16.908,9.745 V 1.328 C 9.851,0.886 3.97,0.442 0,0 m 36.461,17.866 v -51.68 H 18.966 l -1.471,12.108 C 4.558,-33.814 -0.294,-36.324 -11.026,-36.324 c -16.907,0 -22.053,8.712 -22.053,20.228 0,14.767 7.351,22.888 25.141,25.989 6.321,0.885 14.848,1.624 22.788,2.214 v 4.43 c 0,7.826 -3.824,9.598 -10.88,9.598 -7.792,0 -17.937,-1.033 -28.228,-2.067 l -2.058,14.913 c 10.586,1.624 23.082,3.544 33.374,3.544 16.465,0 29.255,-4.873 29.403,-24.659"
             style="fill:url(#linearGradient6788);fill-opacity:1;fill-rule:nonzero;stroke:none"
             id="path782" />
        </g>
        <g
           id="g784"
           transform="translate(525.6465,266.0656)"
           style="fill:url(#linearGradient6794);fill-opacity:1;fill-rule:nonzero">
          <path
             d="m 0,0 v -33.519 c 6.616,-1.919 10.88,-2.51 15.584,-2.51 10.145,0 14.556,5.168 14.556,22.001 0,18.753 -3.088,24.364 -14.556,24.364 C 11.026,10.336 7.792,8.269 0,0 m 0,15.651 c 8.821,7.383 14.996,10.041 22.348,10.041 23.228,0 29.55,-10.483 29.55,-41.048 0,-28.794 -13.232,-37.801 -33.961,-37.801 -11.909,0 -25.14,2.953 -39.548,6.792 V 52.714 H 0 Z"
             style="fill:url(#linearGradient6792);fill-opacity:1;fill-rule:nonzero;stroke:none"
             id="path786" />
        </g>
        <g
           id="g788"
           transform="translate(613.4131,266.0656)"
           style="fill:url(#linearGradient6798);fill-opacity:1;fill-rule:nonzero">
          <path
             d="m 0,0 v -33.519 c 6.616,-1.919 10.88,-2.51 15.584,-2.51 10.145,0 14.556,5.168 14.556,22.001 0,18.753 -3.088,24.364 -14.556,24.364 C 11.026,10.336 7.792,8.269 0,0 m 0,15.651 c 8.821,7.383 14.996,10.041 22.348,10.041 23.228,0 29.55,-10.483 29.55,-41.048 0,-28.794 -13.232,-37.801 -33.961,-37.801 -11.909,0 -25.14,2.953 -39.548,6.792 V 52.714 H 0 Z"
             style="fill:url(#linearGradient6796);fill-opacity:1;fill-rule:nonzero;stroke:none"
             id="path790" />
        </g>
        <path
           d="m 702.65,215.418 h -21.611 v 73.83 h 21.611 z m 0.736,83.575 h -23.082 v 19.786 h 23.082 z"
           style="fill:url(#linearGradient6800);fill-opacity:1;fill-rule:nonzero;stroke:none"
           id="path792" />
        <g
           id="g794"
           transform="translate(749.8418,289.2482)"
           style="fill:url(#linearGradient6804);fill-opacity:1;fill-rule:nonzero">
          <path
             d="M 0,0 H 19.406 V -16.243 H 0 v -33.814 c 0,-9.007 4.411,-11.222 10.438,-11.222 3.382,0 7.792,0.147 11.909,0.443 l 1.323,-13.585 c -5.44,-0.886 -12.35,-1.919 -18.818,-1.919 -13.82,0 -26.611,4.725 -26.611,24.216 v 35.881 h -12.79 v 14.914 l 12.79,0.738 V 15.947 H 0 Z"
             style="fill:url(#linearGradient6802);fill-opacity:1;fill-rule:nonzero;stroke:none"
             id="path796" />
        </g>
        <g
           id="g798"
           transform="translate(800.1006,300.0627)"
           style="fill:url(#linearGradient6808);fill-opacity:1;fill-rule:nonzero">
          <path
             d="m 0,0 v -5.233 c 0.764,-0.09 1.572,-0.136 3.056,-0.136 2.292,0 3.01,0.812 3.01,2.617 C 6.066,-0.722 5.393,0 3.056,0 Z m 9.077,-2.391 c 0,-2.03 -0.674,-3.519 -2.472,-4.241 0.764,-0.406 1.348,-1.128 1.664,-2.121 l 1.617,-5.143 H 6.561 L 5.167,-9.249 C 4.763,-8.121 4.224,-7.76 3.415,-7.76 H 2.696 C 1.482,-7.76 0.719,-7.715 0,-7.67 v -6.226 H -3.101 V 2.392 h 6.786 c 3.999,0 5.392,-1.58 5.392,-4.783 M -9.797,-5.865 c 0,-7.355 5.842,-13.266 12.987,-13.266 7.055,0 12.942,5.911 12.942,13.266 C 16.132,1.534 10.245,7.4 3.19,7.4 -3.955,7.4 -9.797,1.534 -9.797,-5.865 m 29.48,0 c 0,-9.114 -7.37,-16.559 -16.493,-16.559 -9.122,0 -16.492,7.445 -16.492,16.559 0,9.159 7.37,16.559 16.492,16.559 9.123,0 16.493,-7.4 16.493,-16.559"
             style="fill:url(#linearGradient6806);fill-opacity:1;fill-rule:nonzero;stroke:none"
             id="path800" />
        </g>
      </g>
    </g>
  </g>
</svg>
