<?xml version="1.0" encoding="UTF-8" standalone="no"?>
<!-- Created with Inkscape (http://www.inkscape.org/) -->

<svg
   width="101.41966mm"
   height="45.835819mm"
   viewBox="0 0 101.41966 45.835819"
   version="1.1"
   id="svg895"
   inkscape:version="1.2 (dc2aedaf03, 2022-05-15)"
   sodipodi:docname="logoLetras.svg"
   xmlns:inkscape="http://www.inkscape.org/namespaces/inkscape"
   xmlns:sodipodi="http://sodipodi.sourceforge.net/DTD/sodipodi-0.dtd"
   xmlns="http://www.w3.org/2000/svg"
   xmlns:svg="http://www.w3.org/2000/svg">
  <sodipodi:namedview
     id="namedview897"
     pagecolor="#ffffff"
     bordercolor="#000000"
     borderopacity="0.25"
     inkscape:showpageshadow="2"
     inkscape:pageopacity="0"
     inkscape:pagecheckerboard="0"
     inkscape:deskcolor="#d1d1d1"
     inkscape:document-units="mm"
     showgrid="false"
     inkscape:zoom="0.6632867"
     inkscape:cx="-497.52241"
     inkscape:cy="30.152874"
     inkscape:window-width="1366"
     inkscape:window-height="705"
     inkscape:window-x="892"
     inkscape:window-y="1079"
     inkscape:window-maximized="1"
     inkscape:current-layer="svg895" />
  <defs
     id="defs892" />
  <path
     d="m -148.6589,-34.861123 h -12.27384 V 0.47451651 h -9.17576 V -34.861123 h -12.21316 v -7.38434 h 33.66276 z"
     style="display:inline;opacity:1;fill:#ffffff;fill-opacity:1;fill-rule:nonzero;stroke:none;stroke-width:0.705556"
     id="path424"
     inkscape:export-filename="letrasTheRabbitWhite.png"
     inkscape:export-xdpi="96"
     inkscape:export-ydpi="96" />
  <path
     d="m -134.25802,-26.683303 c 4.07108,-2.8681 8.32486,-4.3942 12.1525,-4.3942 5.1047,0 8.62896,2.68534 8.62896,8.66632 V 0.47423651 h -8.93234 V -20.092003 c 0,-2.62468 -1.21568,-3.90598 -3.70698,-3.90598 -2.61268,0 -5.22536,1.09856 -8.14214,3.29568 V 0.47423651 h -8.9324 V -42.245743 h 8.9324 z"
     style="opacity:1;fill:#ffffff;fill-opacity:1;fill-rule:nonzero;stroke:none;stroke-width:0.705556"
     id="path428" />
  <path
     d="m -98.711199,-17.101863 h 11.90978 c 0.0606,-2.68534 -0.24342,-4.51626 -0.97226,-5.61482 -0.91158,-1.40336 -2.43064,-1.8916 -4.67924,-1.8916 -4.13174,0 -5.95418,1.46474 -6.25828,7.50642 m 16.89242,-10.31382 c 2.12654,2.5019 2.73402,6.2858 2.18722,11.90062 l -0.24272,2.74602 h -18.77624 c 0.182,6.2857995 1.64042,7.8119195 6.1976,7.8119195 4.86128,0 7.41326,-0.61032 10.4514,-1.34268 l 0.91156,5.98100001 c -2.4913,0.9151 -6.07624,1.83091999 -11.2409,1.83091999 -12.213881,0 -15.555381,-4.33354 -15.555381,-16.9664995 0,-11.71718 4.73922,-15.68382 15.555381,-15.62314 4.61786,0 8.26346,1.09856 10.51208,3.66184"
     style="opacity:1;fill:#ffffff;fill-opacity:1;fill-rule:nonzero;stroke:none;stroke-width:0.705556"
     id="path432" />
  <path
     d="m -205.53148,12.808617 v 12.45024 c 1.88384,0.1828 3.76766,0.36618 7.41328,0.36618 5.46876,0 7.35258,-2.1971 7.35258,-6.34718 0,-4.63832 -1.7018,-6.46924 -7.29192,-6.46924 z m 23.63682,5.24862 c 0,5.61482 -2.0052,9.52008 -7.10918,11.16824 2.30928,0.85444 4.31448,2.8681 5.28672,6.04168 l 3.88832,13.12122 h -9.72184 l -3.52426,-11.9006 c -0.91158,-2.74604 -2.43064,-3.7839 -4.61786,-3.7839 h -1.7018 c -2.97744,0 -4.43582,-0.0606 -6.13692,-0.1828 v 15.86724 h -9.17504 V 5.6683965 h 18.95828 c 10.32932,0 13.85358,3.84458 13.85358,12.3888405"
     style="opacity:1;fill:#ffffff;fill-opacity:1;fill-rule:nonzero;stroke:none;stroke-width:0.705556"
     id="path436" />
  <path
     d="m -162.02544,34.412877 c -3.6456,0.6103 -5.10398,2.13572 -5.10398,4.94312 0,2.1971 0.97224,3.72322 4.25308,3.72322 2.43064,0 3.28154,-0.54962 6.98782,-4.02802 v -5.18794 c -2.06586,0.1834 -4.4965,0.36618 -6.13692,0.54962 m 15.06926,-7.38434 v 21.35998 h -7.23054 l -0.60818,-5.0045 c -5.3467,5.0045 -7.3519,6.04168 -11.78772,6.04168 -6.98782,0 -9.11436,-3.60046 -9.11436,-8.36084 0,-6.10306 3.03812,-9.45938 10.39,-10.74138 2.61338,-0.36618 6.13762,-0.67098 9.41846,-0.9151 v -1.83092 c 0,-3.23426 -1.57974,-3.96664 -4.4965,-3.96664 -3.22016,0 -7.41328,0.42686 -11.66636,0.85444 l -0.8509,-6.16374 c 4.37514,-0.67168 9.53982,-1.46474 13.7936,-1.46474 6.80508,0 12.09182,2.01366 12.1525,10.19176"
     style="opacity:1;fill:#ffffff;fill-opacity:1;fill-rule:nonzero;stroke:none;stroke-width:0.705556"
     id="path440" />
  <path
     d="m -131.58356,27.455597 v 13.85358 c 2.73404,0.79304 4.49652,1.03716 6.44104,1.03716 4.1924,0 6.01556,-2.1357 6.01556,-9.0932 0,-7.75052 -1.27634,-10.06968 -6.01556,-10.06968 -1.88384,0 -3.22086,0.85442 -6.44104,4.27214 m 0,-6.46924 c 3.64562,-3.05152 6.19762,-4.15008 9.23574,-4.15008 9.6012,0 12.21388,4.33352 12.21388,16.9665 0,11.8999 -5.46876,15.62312 -14.03632,15.62312 -4.92196,0 -10.39074,-1.22062 -16.34568,-2.80742 V 5.6680365 h 8.93238 z"
     style="opacity:1;fill:#ffffff;fill-opacity:1;fill-rule:nonzero;stroke:none;stroke-width:0.705556"
     id="path444" />
  <path
     d="m -95.308599,27.455597 v 13.85358 c 2.73474,0.79304 4.4965,1.03716 6.44102,1.03716 4.1924,0 6.01556,-2.1357 6.01556,-9.0932 0,-7.75052 -1.27564,-10.06968 -6.01556,-10.06968 -1.88384,0 -3.22086,0.85442 -6.44102,4.27214 m 0,-6.46924 c 3.6456,-3.05152 6.1976,-4.15008 9.23642,-4.15008 9.6005,0 12.21318,4.33352 12.21318,16.9665 0,11.8999 -5.46876,15.62312 -14.03632,15.62312 -4.92196,0 -10.39072,-1.22062 -16.345621,-2.80742 V 5.6680365 h 8.932341 z"
     style="opacity:1;fill:#ffffff;fill-opacity:1;fill-rule:nonzero;stroke:none;stroke-width:0.705556"
     id="path448" />
  <path
     d="m -58.425959,48.388577 h -8.93232 v -30.51386 h 8.93232 z m 0.3041,-34.54258 h -9.53982 V 5.6678965 h 9.53982 z"
     style="opacity:1;fill:#ffffff;fill-opacity:1;fill-rule:nonzero;stroke:none;stroke-width:0.705556"
     id="path450" />
  <path
     d="m -38.921439,17.874157 h 8.02076 v 6.71264 h -8.02076 v 13.97566 c 0,3.72322 1.82316,4.63832 4.31448,4.63832 1.3977,0 3.22014,-0.0614 4.92194,-0.1828 l 0.54682,5.6141 c -2.24862,0.36618 -5.104,0.79376 -7.77806,0.79376 -5.71146,0 -10.9982,-1.95298 -10.9982,-10.00902 v -14.83008 h -5.28672 v -6.16372 l 5.28672,-0.3048 v -6.83542 h 8.99302 z"
     style="opacity:1;fill:#ffffff;fill-opacity:1;fill-rule:nonzero;stroke:none;stroke-width:0.705556"
     id="path454" />
  <path
     d="m -20.001539,11.384037 v 2.16322 c 0.31538,0.0374 0.64982,0.0564 1.26294,0.0564 0.94686,0 1.2439,-0.33584 1.2439,-1.08232 0,-0.8389 -0.278,-1.13736 -1.2439,-1.13736 z m 3.75144,0.98848 c 0,0.8396 -0.2787,1.45484 -1.02164,1.7533 0.31608,0.168 0.55738,0.46638 0.6872,0.8763 l 0.66888,2.12654 h -1.37444 l -0.57572,-1.92122 c -0.1672,-0.46638 -0.39018,-0.61524 -0.7246,-0.61524 h -0.29704 c -0.50166,0 -0.81704,-0.02 -1.11408,-0.0374 v 2.57386 h -1.28128 v -6.73312 h 2.80386 c 1.65312,0 2.22886,0.65264 2.22886,1.97698 m -7.79992,1.4365 c 0,3.04024 2.4137,5.48288 5.36716,5.48288 2.91536,0 5.34812,-2.44264 5.34812,-5.48288 0,-3.05928 -2.43276,-5.4835805 -5.34812,-5.4835805 -2.95346,0 -5.36716,2.4243005 -5.36716,5.4835805 m 12.18282,0 c 0,3.76696 -3.04588,6.8446 -6.81566,6.8446 -3.76978,0 -6.81566,-3.07764 -6.81566,-6.8446 0,-3.78672 3.04588,-6.8453005 6.81566,-6.8453005 3.76978,0 6.81566,3.0585805 6.81566,6.8453005"
     style="opacity:1;fill:#ffffff;fill-opacity:1;fill-rule:nonzero;stroke:none;stroke-width:0.705556"
     id="path458" />
  <path
     style="opacity:1;fill:#ffffff;fill-opacity:1;stroke-width:0.199449"
     d="m -170.03001,-17.214932 v -17.651209 h -6.08319 -6.08318 v -3.689801 -3.689801 h 16.75369 16.75369 v 3.689801 3.689801 h -6.18291 -6.18291 v 17.651209 17.65120831 h -4.4876 -4.48759 z"
     id="path1971" />
</svg>
