<?xml version="1.0" encoding="UTF-8" standalone="no"?>
<!-- Created with Inkscape (http://www.inkscape.org/) -->

<svg
   width="120.36377mm"
   height="66.430374mm"
   viewBox="0 0 120.36377 66.430374"
   version="1.1"
   id="svg9052"
   inkscape:export-filename="metaLogo.png"
   inkscape:export-xdpi="89.882065"
   inkscape:export-ydpi="89.882065"
   inkscape:version="1.2 (dc2aedaf03, 2022-05-15)"
   sodipodi:docname="dibujo.svg"
   xmlns:inkscape="http://www.inkscape.org/namespaces/inkscape"
   xmlns:sodipodi="http://sodipodi.sourceforge.net/DTD/sodipodi-0.dtd"
   xmlns="http://www.w3.org/2000/svg"
   xmlns:svg="http://www.w3.org/2000/svg">
  <sodipodi:namedview
     id="namedview9054"
     pagecolor="#505050"
     bordercolor="#eeeeee"
     borderopacity="1"
     inkscape:showpageshadow="0"
     inkscape:pageopacity="0"
     inkscape:pagecheckerboard="0"
     inkscape:deskcolor="#505050"
     inkscape:document-units="mm"
     showgrid="false"
     inkscape:zoom="0.97993827"
     inkscape:cx="230.62677"
     inkscape:cy="160.21417"
     inkscape:window-width="1350"
     inkscape:window-height="689"
     inkscape:window-x="900"
     inkscape:window-y="1087"
     inkscape:window-maximized="0"
     inkscape:current-layer="layer1" />
  <defs
     id="defs9049">
    <clipPath
       clipPathUnits="userSpaceOnUse"
       id="clipPath474">
      <path
         d="m 182.831,275.868 c 0,-33.313 27.007,-60.319 60.32,-60.319 v 0 c 33.314,0 60.32,27.006 60.32,60.319 v 0 c 0,33.314 -27.006,60.32 -60.32,60.32 v 0 c -33.313,0 -60.32,-27.006 -60.32,-60.32"
         id="path472" />
    </clipPath>
    <clipPath
       clipPathUnits="userSpaceOnUse"
       id="clipPath270">
      <path
         d="M 0,1190.551 H 1181.593 V 0 H 0 Z"
         id="path268" />
    </clipPath>
    <clipPath
       clipPathUnits="userSpaceOnUse"
       id="clipPath270-2">
      <path
         d="M 0,1190.551 H 1181.593 V 0 H 0 Z"
         id="path268-1" />
    </clipPath>
  </defs>
  <g
     inkscape:label="Capa 1"
     inkscape:groupmode="layer"
     id="layer1"
     transform="translate(-54.204858,-89.096065)">
    <path
       d="M 174.52453,155.48234 H 54.248955 V 89.140162 H 174.52453 Z"
       style="fill:#1d1d1b;fill-opacity:1;fill-rule:nonzero;stroke:#ffffff;stroke-width:0.0881945;stroke-linecap:butt;stroke-linejoin:miter;stroke-miterlimit:10;stroke-dasharray:none;stroke-opacity:1"
       id="path258" />
    <g
       id="g260"
       transform="matrix(0.25132074,0,0,-0.25572684,82.314572,140.69577)"
       style="stroke-width:1.39157">
      <path
         d="M 0,19.5 H -12.109 V -15.359 H -21.16 V 19.5 h -12.049 v 7.285 H 0 Z"
         style="fill:#ffffff;fill-opacity:1;fill-rule:nonzero;stroke:none;stroke-width:1.39157"
         id="path262" />
    </g>
    <g
       id="g264"
       transform="matrix(0.25132074,0,0,-0.25572684,51.895687,363.25889)"
       style="stroke-width:1.39157">
      <g
         id="g266"
         clip-path="url(#clipPath270-2)"
         style="stroke-width:1.39157">
        <g
           id="g272"
           transform="translate(135.2421,881.7483)"
           style="stroke-width:1.39157">
          <path
             d="m 0,0 c 4.016,2.83 8.212,4.335 11.989,4.335 5.035,0 8.512,-2.649 8.512,-8.549 v -22.577 h -8.812 v 20.289 c 0,2.589 -1.199,3.853 -3.656,3.853 C 5.455,-2.649 2.877,-3.733 0,-5.9 V -26.791 H -8.812 V 15.352 H 0 Z"
             style="fill:#ffffff;fill-opacity:1;fill-rule:nonzero;stroke:none;stroke-width:1.39157"
             id="path274" />
        </g>
        <g
           id="g276"
           transform="translate(170.3089,872.296)"
           style="stroke-width:1.39157">
          <path
             d="M 0,0 H 11.749 C 11.809,2.649 11.509,4.456 10.79,5.539 9.891,6.924 8.392,7.405 6.174,7.405 2.098,7.405 0.3,5.961 0,0 m 16.664,10.175 c 2.098,-2.469 2.698,-6.201 2.158,-11.74 L 18.583,-4.274 H 0.06 c 0.18,-6.202 1.619,-7.707 6.114,-7.707 4.796,0 7.313,0.602 10.311,1.325 l 0.899,-5.9 c -2.458,-0.903 -5.995,-1.806 -11.09,-1.806 -12.049,0 -15.345,4.274 -15.345,16.737 0,11.559 4.675,15.472 15.345,15.412 4.556,0 8.153,-1.084 10.37,-3.612"
             style="fill:#ffffff;fill-opacity:1;fill-rule:nonzero;stroke:none;stroke-width:1.39157"
             id="path278" />
        </g>
        <g
           id="g280"
           transform="translate(215.0864,890.0566)"
           style="stroke-width:1.39157">
          <path
             d="m 0,0 v -12.282 c 1.858,-0.18 3.717,-0.361 7.313,-0.361 5.395,0 7.253,2.167 7.253,6.261 C 14.566,-1.806 12.888,0 7.373,0 Z m 23.318,-5.177 c 0,-5.539 -1.978,-9.393 -7.013,-11.018 2.278,-0.843 4.256,-2.83 5.215,-5.96 l 3.836,-12.944 h -9.591 l -3.477,11.74 c -0.899,2.709 -2.397,3.732 -4.555,3.732 H 6.054 c -2.937,0 -4.376,0.06 -6.054,0.181 V -35.099 H -9.051 V 7.044 H 9.651 c 10.19,0 13.667,-3.793 13.667,-12.221"
             style="fill:#ffffff;fill-opacity:1;fill-rule:nonzero;stroke:none;stroke-width:1.39157"
             id="path282" />
        </g>
        <g
           id="g284"
           transform="translate(258.0048,868.7443)"
           style="stroke-width:1.39157">
          <path
             d="m 0,0 c -3.597,-0.602 -5.035,-2.108 -5.035,-4.877 0,-2.167 0.959,-3.672 4.196,-3.672 2.398,0 3.237,0.542 6.894,3.973 V 0.542 C 4.016,0.361 1.619,0.18 0,0 M 14.866,7.285 V -13.787 H 7.733 l -0.6,4.937 c -5.275,-4.937 -7.253,-5.96 -11.629,-5.96 -6.893,0 -8.991,3.552 -8.991,8.247 0,6.021 2.997,9.332 10.25,10.597 2.578,0.361 6.055,0.662 9.292,0.903 v 1.806 c 0,3.191 -1.559,3.913 -4.436,3.913 -3.177,0 -7.314,-0.421 -11.51,-0.843 l -0.839,6.081 c 4.316,0.662 9.411,1.445 13.608,1.445 6.713,0 11.928,-1.987 11.988,-10.054"
             style="fill:#ffffff;fill-opacity:1;fill-rule:nonzero;stroke:none;stroke-width:1.39157"
             id="path286" />
        </g>
        <g
           id="g288"
           transform="translate(288.0356,875.6076)"
           style="stroke-width:1.39157">
          <path
             d="m 0,0 v -13.667 c 2.698,-0.782 4.436,-1.023 6.354,-1.023 4.136,0 5.935,2.107 5.935,8.97 0,7.646 -1.259,9.934 -5.935,9.934 C 4.496,4.214 3.177,3.371 0,0 m 0,6.382 c 3.597,3.01 6.114,4.094 9.112,4.094 9.471,0 12.049,-4.275 12.049,-16.737 0,-11.74 -5.396,-15.413 -13.848,-15.413 -4.855,0 -10.25,1.204 -16.125,2.77 V 21.493 H 0 Z"
             style="fill:#ffffff;fill-opacity:1;fill-rule:nonzero;stroke:none;stroke-width:1.39157"
             id="path290" />
        </g>
        <g
           id="g292"
           transform="translate(323.8206,875.6076)"
           style="stroke-width:1.39157">
          <path
             d="m 0,0 v -13.667 c 2.698,-0.782 4.436,-1.023 6.354,-1.023 4.136,0 5.935,2.107 5.935,8.97 0,7.646 -1.259,9.934 -5.935,9.934 C 4.496,4.214 3.177,3.371 0,0 m 0,6.382 c 3.597,3.01 6.114,4.094 9.112,4.094 9.471,0 12.049,-4.275 12.049,-16.737 0,-11.74 -5.396,-15.413 -13.848,-15.413 -4.855,0 -10.25,1.204 -16.125,2.77 V 21.493 H 0 Z"
             style="fill:#ffffff;fill-opacity:1;fill-rule:nonzero;stroke:none;stroke-width:1.39157"
             id="path294" />
        </g>
        <path
           d="m 360.205,854.957 h -8.812 v 30.103 h 8.812 z m 0.3,34.076 h -9.411 v 8.067 h 9.411 z"
           style="fill:#ffffff;fill-opacity:1;fill-rule:nonzero;stroke:none;stroke-width:1.39157"
           id="path296" />
        <g
           id="g298"
           transform="translate(379.4468,885.0599)"
           style="stroke-width:1.39157">
          <path
             d="M 0,0 H 7.913 V -6.623 H 0 V -20.41 c 0,-3.672 1.799,-4.575 4.256,-4.575 1.379,0 3.177,0.06 4.855,0.18 l 0.54,-5.539 c -2.218,-0.361 -5.035,-0.782 -7.673,-0.782 -5.634,0 -10.85,1.926 -10.85,9.873 v 14.63 h -5.215 v 6.081 l 5.215,0.301 V 6.502 H 0 Z"
             style="fill:#ffffff;fill-opacity:1;fill-rule:nonzero;stroke:none;stroke-width:1.39157"
             id="path300" />
        </g>
        <g
           id="g302"
           transform="translate(399.9388,889.4692)"
           style="stroke-width:1.39157">
          <path
             d="m 0,0 v -2.134 c 0.311,-0.036 0.641,-0.055 1.246,-0.055 0.934,0 1.227,0.331 1.227,1.067 C 2.473,-0.294 2.199,0 1.246,0 Z m 3.701,-0.975 c 0,-0.827 -0.275,-1.435 -1.008,-1.729 0.312,-0.166 0.55,-0.46 0.678,-0.865 l 0.66,-2.097 H 2.675 l -0.568,1.895 c -0.165,0.46 -0.385,0.607 -0.715,0.607 H 1.099 c -0.495,0 -0.806,0.018 -1.099,0.037 v -2.539 h -1.264 v 6.641 h 2.766 c 1.631,0 2.199,-0.644 2.199,-1.95 m -7.695,-1.416 c 0,-2.999 2.381,-5.409 5.295,-5.409 2.876,0 5.276,2.41 5.276,5.409 0,3.017 -2.4,5.408 -5.276,5.408 -2.914,0 -5.295,-2.391 -5.295,-5.408 m 12.019,0 c 0,-3.717 -3.005,-6.752 -6.724,-6.752 -3.72,0 -6.725,3.035 -6.725,6.752 0,3.734 3.005,6.751 6.725,6.751 3.719,0 6.724,-3.017 6.724,-6.751"
             style="fill:#ffffff;fill-opacity:1;fill-rule:nonzero;stroke:none;stroke-width:1.39157"
             id="path304" />
        </g>
      </g>
    </g>
    <g
       id="g468"
       transform="matrix(0.25132074,0,0,-0.25572684,53.277728,184.75823)"
       style="stroke-width:1.39157">
      <g
         id="g470"
         clip-path="url(#clipPath474)"
         style="stroke-width:1.39157">
        <g
           id="g476"
           transform="translate(303.471,276.0142)"
           style="stroke-width:1.39157">
          <path
             d="m 0,0 c 0,-33.314 -27.006,-60.32 -60.32,-60.32 -33.313,0 -60.319,27.006 -60.319,60.32 0,33.314 27.006,60.32 60.319,60.32 C -27.006,60.32 0,33.314 0,0"
             style="fill:#83b9bf;fill-opacity:1;fill-rule:nonzero;stroke:none;stroke-width:1.39157"
             id="path478" />
        </g>
        <g
           id="g480"
           transform="translate(207.6843,317.7169)"
           style="stroke-width:1.39157">
          <path
             d="m 0,0 c 11.263,-10.227 22.528,-20.451 33.78,-30.69 0.379,-0.344 0.757,-0.79 0.909,-1.261 0.237,-0.736 0.011,-1.445 -0.705,-1.874 -0.832,-0.5 -1.611,-0.315 -2.296,0.303 -2.008,1.809 -4.004,3.632 -6.004,5.449 -7.89,7.166 -15.779,14.332 -23.669,21.497 -0.305,0.277 -0.62,0.543 -0.93,0.814 C 0.972,-5.799 0.86,-5.836 0.747,-5.872 1.118,-7.25 1.388,-8.666 1.878,-10 c 2.104,-5.721 5.586,-10.604 9.511,-15.185 2.054,-2.397 4.22,-4.7 6.381,-7.003 0.786,-0.837 0.906,-1.664 0.474,-2.696 -3.417,-8.151 -5.733,-16.646 -7.466,-25.281 -1.352,-6.731 -2.398,-13.529 -3.386,-20.326 -0.601,-4.133 -0.808,-8.322 -1.259,-12.478 -0.068,-0.625 -0.353,-1.4 -0.809,-1.755 -0.401,-0.311 -1.361,-0.38 -1.754,-0.102 -0.495,0.35 -0.975,1.187 -0.926,1.767 0.45,5.264 0.776,10.555 1.605,15.764 1.287,8.09 2.669,16.185 4.526,24.158 1.414,6.074 3.596,11.973 5.523,17.922 0.279,0.863 0.208,1.341 -0.404,1.968 -4.344,4.445 -8.363,9.162 -11.634,14.47 -2.283,3.706 -4.213,7.582 -4.856,11.942 -0.214,1.448 -0.208,2.971 -0.012,4.421 0.114,0.845 0.805,1.612 1.237,2.414 z"
             style="fill:none;stroke:#ffffff;stroke-width:1.87581;stroke-linecap:butt;stroke-linejoin:miter;stroke-miterlimit:10;stroke-dasharray:none;stroke-opacity:1"
             id="path482" />
        </g>
        <g
           id="g484"
           transform="translate(221.6221,317.7169)"
           style="stroke-width:1.39157">
          <path
             d="m 0,0 c 7.04,-6.38 14.084,-12.756 21.115,-19.145 0.973,-0.883 1.093,-1.927 0.4,-2.697 -0.733,-0.815 -1.781,-0.79 -2.812,0.143 C 13.428,-16.923 8.166,-12.133 2.899,-7.348 2.31,-6.813 1.717,-6.284 1,-5.637 0.931,-5.952 0.9,-6.146 0.846,-6.333 0.586,-7.231 0.049,-7.792 -0.949,-7.762 c -0.946,0.029 -1.601,0.591 -1.614,1.45 -0.025,1.693 0.105,3.396 0.301,5.079 0.051,0.439 0.581,0.823 0.891,1.233 z"
             style="fill:none;stroke:#ffffff;stroke-width:1.87581;stroke-linecap:butt;stroke-linejoin:miter;stroke-miterlimit:10;stroke-dasharray:none;stroke-opacity:1"
             id="path486" />
        </g>
        <g
           id="g488"
           transform="translate(274.9254,254.067)"
           style="stroke-width:1.39157">
          <path
             d="M 0,0 C 0.918,2.293 1.779,4.445 2.695,6.734 H -7.784 C -6.232,3.242 -3.504,1.386 0,0 Z m -2.201,-3.037 c -0.057,0.079 -0.071,0.118 -0.097,0.13 -0.275,0.127 -0.556,0.243 -0.828,0.376 -2.711,1.327 -5.151,3.043 -6.695,5.67 -0.83,1.412 -1.945,2.193 -3.404,2.574 -1.165,0.304 -2.37,0.559 -3.568,0.615 -5.771,0.273 -10.805,-3.663 -12.191,-9.447 -1.292,-5.389 1.62,-11.28 6.754,-13.584 0.358,-0.16 0.893,-0.181 1.256,-0.037 4.654,1.841 9.009,4.219 12.871,7.432 2.225,1.851 4.256,3.894 5.902,6.271 z M -11.63,9.028 c 0.494,1.188 1.495,1.394 2.685,1.376 2.915,-0.043 5.831,-0.014 8.91,0.258 -0.285,0.224 -0.585,0.432 -0.853,0.675 -9.358,8.495 -18.713,16.993 -28.069,25.491 -0.085,0.076 -0.172,0.15 -0.256,0.228 -1.122,1.032 -1.305,2.004 -0.537,2.856 0.783,0.867 1.73,0.809 2.889,-0.242 C -16.064,29.871 -5.275,20.064 5.522,10.266 6.289,9.57 6.591,8.813 6.387,7.737 5.03,0.591 1.373,-5.239 -3.806,-10.196 c -3.463,-3.314 -7.394,-5.979 -11.75,-7.961 -1.313,-0.598 -1.678,-1.342 -1.668,-2.74 0.065,-9.936 0.035,-19.874 0.034,-29.811 0,-0.418 0.018,-0.84 -0.021,-1.255 -0.092,-0.963 -0.821,-1.639 -1.746,-1.589 -0.96,0.052 -1.549,0.572 -1.666,1.544 -0.05,0.414 -0.033,0.836 -0.033,1.255 -0.002,9.632 -0.001,19.265 -0.001,28.897 0,0.413 0,0.827 0,1.32 -2.335,-0.7 -4.579,-1.375 -6.825,-2.043 -0.618,-0.184 -1.236,-0.37 -1.863,-0.517 -1.007,-0.237 -1.954,0.256 -2.216,1.119 -0.303,0.994 0.128,1.874 1.22,2.235 1.292,0.428 2.618,0.756 3.98,1.141 -6.833,6.229 -8.667,13.403 -3.786,21.488 3.676,6.089 9.924,7.976 18.517,6.141 z"
             style="fill:none;stroke:#ffffff;stroke-width:1.87581;stroke-linecap:butt;stroke-linejoin:miter;stroke-miterlimit:10;stroke-dasharray:none;stroke-opacity:1"
             id="path490" />
        </g>
        <g
           id="g492"
           transform="translate(247.9016,271.3479)"
           style="stroke-width:1.39157">
          <path
             d="M 0,0 C 0.001,0.834 -0.024,1.669 0.008,2.501 0.048,3.547 0.739,4.269 1.68,4.309 2.604,4.348 3.411,3.657 3.445,2.626 3.504,0.847 3.508,-0.936 3.447,-2.715 3.41,-3.801 2.693,-4.404 1.692,-4.38 c -0.965,0.023 -1.623,0.709 -1.69,1.765 -0.004,0.075 -0.003,0.151 -0.003,0.227 0,0.796 0,1.592 0.001,2.388 z"
             style="fill:none;stroke:#ffffff;stroke-width:1.87581;stroke-linecap:butt;stroke-linejoin:miter;stroke-miterlimit:10;stroke-dasharray:none;stroke-opacity:1"
             id="path494" />
        </g>
        <g
           id="g496"
           transform="translate(259.5729,271.2202)"
           style="stroke-width:1.39157">
          <path
             d="m 0,0 c 0,-0.871 0.044,-1.746 -0.011,-2.614 -0.068,-1.054 -0.784,-1.671 -1.784,-1.636 -0.927,0.033 -1.621,0.685 -1.641,1.674 -0.037,1.781 -0.039,3.564 0.005,5.344 0.023,0.963 0.773,1.647 1.676,1.67 0.889,0.022 1.624,-0.65 1.746,-1.597 C 0.005,2.729 0.018,2.615 0.018,2.502 0.021,1.668 0.02,0.834 0.02,0 0.013,0 0.007,0 0,0 Z"
             style="fill:none;stroke:#ffffff;stroke-width:1.87581;stroke-linecap:butt;stroke-linejoin:miter;stroke-miterlimit:10;stroke-dasharray:none;stroke-opacity:1"
             id="path498" />
        </g>
      </g>
    </g>
  </g>
</svg>
